# xmcd CD database file
#
# Track frame offsets:
#	150
#	24211
#	48761
#	77531
#	99738
#	126022
#	157667
#	187569
#	206270
#	237834
#
# Disc length: 3662 seconds
#
# Revision: 0
# Processed by: cddbd v1.5.1PL0 Copyright (c) Steve Scherf et al.
# Submitted via: CDex 1.51
#
DISCID=5f0e4c0a
DTITLE=Purdue University Jazz Band - Live in the Orient
DYEAR=1994
DGENRE=Jazz
TTITLE0=Confirmation
TTITLE1=Pavane
TTITLE2=Boilermaker
TTITLE3=Caldonia
TTITLE4='Round Midnight
TTITLE5=Afternoon of a Prawn
TTITLE6=Above and Below
TTITLE7=Body and Soul
TTITLE8=Bye Bye Blackbird
TTITLE9=Apple Honey
EXTD=YEAR: 1994
EXTT0=
EXTT1=
EXTT2=
EXTT3=
EXTT4=
EXTT5=
EXTT6=
EXTT7=
EXTT8=
EXTT9=
PLAYORDER=
